<svg xmlns="http://www.w3.org/2000/svg" width="1495" height="701" viewBox="0 0 1495 701">
<g>
<path d="M 166.68 468.00 C164.80,468.00 161.96,468.24 160.38,468.54 C158.40,468.91 156.33,468.35 153.75,466.76 C146.48,462.28 146.56,462.63 146.00,432.00 L 145.50 404.50 L 129.50 403.90 C111.83,403.24 108.45,402.40 99.47,396.44 C89.46,389.79 82.54,379.69 80.12,368.20 C79.37,364.65 79.00,343.56 79.00,304.16 C79.00,240.30 79.09,239.12 84.69,228.83 C88.45,221.93 97.71,213.51 105.71,209.72 L 112.50 206.50 L 305.60 206.50 L 312.28 209.89 C324.76,216.22 334.78,229.73 336.95,243.14 C337.52,246.64 337.99,255.42 337.99,262.65 L 338.00 275.79 L 354.25 276.21 C372.22,276.67 379.13,278.33 385.90,283.81 C389.25,286.52 391.65,290.14 389.03,288.52 C388.12,287.95 388.04,288.24 388.72,289.63 C389.23,290.66 389.38,292.85 389.07,294.50 C388.54,297.22 388.05,297.55 383.78,298.04 C380.88,298.38 378.17,299.43 376.72,300.79 C375.43,302.01 373.65,303.00 372.77,303.00 C369.69,303.00 368.00,304.23 368.00,306.47 C368.00,308.69 367.82,308.72 353.27,308.92 C345.17,309.03 338.44,309.23 338.31,309.36 C338.18,309.48 338.02,321.27 337.94,335.54 C337.80,363.37 336.80,371.60 332.77,378.04 C331.09,380.73 330.53,381.11 330.23,379.75 C329.87,378.07 326.08,377.20 325.92,378.75 C325.88,379.16 325.70,380.29 325.51,381.25 C325.33,382.21 325.59,383.00 326.09,383.00 C328.75,383.00 325.48,388.85 322.75,388.97 C321.46,389.02 321.93,386.04 323.62,383.46 C325.21,381.03 325.19,381.00 322.22,381.00 C319.63,381.00 318.89,381.66 316.86,385.75 C314.89,389.71 313.77,390.74 310.08,392.00 C305.45,393.58 303.54,395.89 306.67,396.15 C307.67,396.24 309.05,396.35 309.71,396.41 C310.38,396.47 311.40,397.00 311.98,397.58 C312.71,398.31 311.60,399.36 308.27,401.07 C303.51,403.49 303.41,403.50 267.50,403.79 L 231.50 404.07 L 215.00 420.40 C205.93,429.38 197.50,437.38 196.28,438.19 C193.23,440.19 182.19,450.91 178.32,455.63 C176.57,457.76 173.77,461.03 172.10,462.90 C170.43,464.76 169.30,466.68 169.59,467.15 C169.88,467.62 168.57,468.00 166.68,468.00 ZM 177.04 399.50 L 177.08 415.50 L 197.29 394.82 C214.13,377.58 218.17,373.96 221.50,373.07 C223.96,372.42 239.17,372.01 261.00,372.00 C294.84,371.99 296.66,371.90 299.81,369.97 C300.78,369.38 301.60,368.90 302.29,368.28 C306.00,364.92 306.00,357.45 306.00,306.88 L 306.00 304.93 L 306.00 302.06 C306.00,252.63 306.00,245.13 302.27,241.72 C301.53,241.05 300.64,240.53 299.58,239.89 C296.63,238.09 292.84,238.01 208.70,238.00 C203.92,238.00 199.39,238.00 195.09,238.00 C125.30,237.99 117.54,237.98 114.53,241.76 C113.96,242.47 113.56,243.31 112.96,244.30 C111.08,247.38 111.01,249.74 111.00,305.17 L 111.00 362.85 L 113.62 365.96 C118.49,371.75 119.75,372.00 144.30,372.00 C165.93,372.00 166.82,372.08 170.10,374.27 C176.12,378.29 176.99,381.45 177.04,399.50 ZM 942.00 350.25 L 942.00 431.00 L 912.00 431.00 L 912.00 329.08 L 916.15 327.96 C926.10,325.28 935.46,323.97 949.00,323.37 C965.84,322.63 973.60,324.02 980.87,329.08 L 985.23 332.12 L 992.37 328.63 C1001.64,324.09 1009.65,322.62 1021.76,323.21 C1033.32,323.78 1040.70,326.71 1046.37,332.99 C1055.97,343.61 1056.96,349.39 1056.98,394.75 L 1057.00 431.00 L 1028.18 431.00 L 1027.84 396.22 L 1027.50 361.44 L 1024.94 356.47 C1023.53,353.74 1021.28,350.94 1019.94,350.26 C1014.01,347.27 996.05,350.07 997.47,353.78 C999.23,358.36 999.96,371.80 999.98,399.75 L 1000.00 431.00 L 970.12 431.00 L 969.81 396.25 C969.51,363.09 969.40,361.29 967.34,356.82 C965.98,353.88 964.04,351.56 962.14,350.57 C959.03,348.97 950.73,348.50 945.12,349.62 ZM 668.33 432.52 C656.11,435.11 646.12,433.78 634.37,428.01 C621.02,421.46 611.59,409.34 607.92,394.00 C606.19,386.78 606.18,369.93 607.90,363.00 C612.65,343.87 625.07,330.08 642.21,324.87 C652.27,321.81 668.62,322.52 678.20,326.44 C688.25,330.54 696.97,338.97 701.94,349.36 C706.74,359.44 708.09,365.77 708.08,378.18 C708.07,396.52 702.68,410.46 691.64,420.67 C684.68,427.12 678.15,430.44 668.33,432.52 ZM 541.39 429.42 C540.88,430.76 538.55,431.00 525.89,431.00 L 511.00 431.00 L 511.00 292.00 L 602.00 292.00 L 602.11 302.50 C602.17,308.27 602.27,314.01 602.33,315.25 L 602.45 317.50 L 572.22 317.76 L 542.00 318.03 L 541.85 329.51 C541.77,335.83 541.66,342.24 541.60,343.75 L 541.50 346.50 L 568.28 346.77 L 595.06 347.03 L 594.78 359.77 L 594.50 372.50 L 542.00 373.03 L 542.00 400.43 C542.00,415.51 541.73,428.55 541.39,429.42 ZM 878.50 430.10 C866.22,432.88 837.94,433.69 830.10,431.48 C817.89,428.05 810.88,422.27 805.90,411.55 C801.66,402.43 801.02,395.50 801.01,359.27 L 801.00 326.04 L 803.25 325.48 C804.49,325.17 810.90,325.05 817.50,325.21 L 829.50 325.50 L 830.11 358.00 C830.74,391.45 830.97,393.88 834.16,400.24 C837.45,406.82 847.35,409.68 858.88,407.38 L 862.00 406.75 L 862.00 324.95 L 891.50 325.50 L 891.76 376.13 L 892.02 426.76 L 889.76 427.41 C888.52,427.77 883.45,428.97 878.50,430.10 ZM 753.00 351.20 L 753.00 431.00 L 724.00 431.00 L 724.00 330.31 L 731.69 328.07 C749.63,322.86 768.25,321.59 782.79,324.59 C787.03,325.46 790.66,326.33 790.85,326.52 C791.28,326.95 787.26,349.77 786.55,350.92 C786.27,351.37 783.44,351.14 780.27,350.39 C773.29,348.75 760.47,348.59 756.15,350.10 ZM 649.42 406.17 C652.49,407.61 654.95,407.97 659.36,407.63 C666.54,407.07 671.22,403.70 674.97,396.41 C677.30,391.90 677.50,390.45 677.50,378.43 C677.50,365.87 677.38,365.14 674.48,359.46 C670.34,351.35 666.64,349.00 658.10,349.02 C649.27,349.04 644.78,351.60 640.60,359.00 C637.72,364.12 637.48,365.30 637.16,376.00 C636.87,385.83 637.13,388.32 638.95,393.17 C641.70,400.48 644.37,403.80 649.42,406.17 Z" fill="rgb(102,71,249)"/>
<path d="M 1099.44 421.24 L 1096.50 430.98 L 1063.87 431.00 L 1064.54 428.75 C1064.91,427.51 1067.24,420.65 1069.71,413.50 C1083.33,374.17 1096.38,341.44 1112.78,305.50 L 1118.71 292.50 L 1133.70 292.22 L 1148.69 291.95 L 1154.30 304.37 C1161.66,320.63 1170.84,342.75 1178.25,362.00 C1187.61,386.34 1202.00,427.61 1202.00,430.12 C1202.00,430.61 1194.66,431.00 1185.68,431.00 L 1169.37 431.00 L 1164.57 416.00 L 1159.76 401.00 L 1106.28 401.00 L 1104.32 406.25 C1103.25,409.14 1101.05,415.88 1099.44,421.24 ZM 348.43 309.00 C349.95,308.97 351.58,308.94 353.27,308.92 C367.82,308.72 368.00,308.69 368.00,306.47 C368.00,304.23 369.69,303.00 372.77,303.00 C373.65,303.00 375.43,302.01 376.72,300.79 C378.17,299.43 380.88,298.38 383.78,298.04 C388.05,297.55 388.54,297.22 389.07,294.50 C389.38,292.85 389.23,290.66 388.72,289.63 C388.04,288.24 388.12,287.95 389.03,288.52 C391.65,290.14 389.25,286.52 385.90,283.81 C385.80,283.72 385.69,283.64 385.58,283.55 C392.80,288.54 398.52,295.87 402.28,305.09 C404.42,310.34 404.49,311.70 404.64,352.00 C404.73,374.83 404.45,391.92 404.03,390.00 C403.61,388.08 403.20,387.17 403.12,388.00 C403.03,388.90 402.67,389.10 402.23,388.50 C401.82,387.95 400.28,386.43 398.80,385.13 L 396.12 382.76 L 394.19 385.93 C392.70,388.37 392.12,388.75 391.66,387.55 C391.21,386.39 389.57,386.00 385.09,386.00 C381.81,386.00 378.86,386.41 378.56,386.91 C378.25,387.41 377.21,387.67 376.25,387.49 C375.29,387.30 374.16,387.12 373.75,387.08 C373.34,387.03 373.00,371.68 373.00,352.95 C373.00,316.02 372.92,315.44 367.39,311.09 C364.99,309.21 363.40,309.00 351.37,309.00 ZM 166.68 468.00 C168.57,468.00 169.88,467.62 169.59,467.15 C169.30,466.68 170.43,464.76 172.10,462.90 C173.77,461.03 176.57,457.76 178.32,455.63 C182.19,450.91 193.23,440.19 196.28,438.19 C197.50,437.38 205.93,429.38 215.00,420.40 L 223.57 411.92 L 215.00 420.50 L 198.52 437.00 L 228.57 437.00 C230.45,437.00 232.23,437.00 233.92,436.99 C250.69,436.97 258.02,436.96 263.99,439.80 C269.22,442.28 273.41,446.95 282.00,455.72 C289.42,463.29 292.07,466.18 287.88,462.14 C282.76,457.22 279.14,454.56 276.88,454.06 C274.94,453.65 273.62,452.79 273.78,452.07 C273.94,451.38 273.51,451.00 272.84,451.22 C271.11,451.80 268.06,456.11 267.56,458.68 C267.15,460.80 265.84,462.61 261.25,467.39 C258.66,470.09 258.33,472.81 260.50,473.64 C261.33,473.95 262.00,474.81 262.00,475.55 C262.00,478.38 260.17,477.74 255.96,473.46 L 251.58 469.00 L 204.68 469.00 C177.32,469.00 165.91,468.99 160.35,468.54 L 160.38 468.54 C161.96,468.24 164.80,468.00 166.68,468.00 ZM 1114.00 375.20 C1114.00,375.64 1122.73,376.00 1133.39,376.00 L 1152.79 376.00 L 1148.86 364.75 C1142.88,347.64 1133.87,325.00 1133.04,325.00 C1131.78,325.00 1114.00,371.87 1114.00,375.20 ZM 306.45 401.94 C307.04,401.69 307.61,401.40 308.27,401.07 C311.60,399.36 312.71,398.31 311.98,397.58 C311.40,397.00 310.38,396.47 309.71,396.41 C309.05,396.35 307.67,396.24 306.67,396.15 C303.54,395.89 305.45,393.58 310.08,392.00 C313.77,390.74 314.89,389.71 316.86,385.75 C318.89,381.66 319.63,381.00 322.22,381.00 C325.19,381.00 325.21,381.03 323.62,383.46 C321.93,386.04 321.46,389.02 322.75,388.97 C325.48,388.85 328.75,383.00 326.09,383.00 C325.59,383.00 325.33,382.21 325.51,381.25 C325.70,380.29 325.88,379.16 325.92,378.75 C326.08,377.20 329.87,378.07 330.23,379.75 C330.53,381.11 331.09,380.73 332.77,378.04 C332.88,377.87 332.98,377.70 333.08,377.53 C327.62,389.04 317.97,398.34 306.45,401.94 ZM 240.48 404.00 L 267.50 403.79 C289.88,403.61 298.35,403.54 302.71,402.92 C297.80,403.90 290.62,404.00 265.63,404.00 ZM 335.92 370.13 C336.97,365.50 337.51,359.10 337.76,349.00 C337.79,351.51 337.82,353.46 337.87,354.53 C338.11,359.82 337.41,365.10 335.92,370.13 ZM 264.19 447.94 C263.94,448.69 264.31,449.06 265.06,448.81 C265.78,448.57 266.57,447.78 266.81,447.06 C267.06,446.31 266.69,445.94 265.94,446.19 C265.22,446.43 264.43,447.22 264.19,447.94 ZM 375.05 278.32 C370.12,277.03 363.72,276.45 354.25,276.21 C366.46,276.52 370.73,276.92 375.05,278.32 ZM 153.33 466.50 C149.77,464.49 148.08,463.34 147.20,458.38 C148.08,463.18 149.77,464.31 153.33,466.50 Z" fill="rgb(147,84,235)"/>
<path d="M 1240.00 448.89 L 1240.00 469.00 L 1210.00 469.00 L 1210.00 399.06 C1210.00,360.59 1210.36,328.90 1210.80,328.63 C1211.23,328.36 1216.30,327.16 1222.05,325.97 C1236.55,322.96 1259.95,322.19 1269.40,324.42 C1288.02,328.80 1301.91,343.03 1305.88,361.80 C1308.89,376.03 1306.47,398.22 1300.65,409.70 C1290.39,429.95 1264.99,438.48 1241.75,429.46 C1240.12,428.83 1240.00,430.15 1240.00,448.89 ZM 1352.00 448.89 L 1352.00 469.00 L 1323.00 469.00 L 1323.00 328.17 L 1328.12 327.07 C1348.39,322.72 1371.10,321.67 1382.28,324.57 C1406.17,330.76 1419.46,350.13 1419.30,378.50 C1419.19,396.42 1414.76,409.88 1405.75,419.65 C1393.78,432.64 1372.36,436.68 1353.75,429.46 C1352.12,428.83 1352.00,430.15 1352.00,448.89 ZM 328.60 531.10 C323.59,533.37 319.46,533.48 315.50,531.45 C313.85,530.60 298.77,516.20 281.99,499.45 L 251.49 469.00 L 251.58 469.00 L 255.96 473.46 C260.17,477.74 262.00,478.38 262.00,475.55 C262.00,474.81 261.33,473.95 260.50,473.64 C258.33,472.81 258.66,470.09 261.25,467.39 C265.84,462.61 267.15,460.80 267.56,458.68 C268.06,456.11 271.11,451.80 272.84,451.22 C273.51,451.00 273.94,451.38 273.78,452.07 C273.62,452.79 274.94,453.65 276.88,454.06 C279.14,454.56 282.76,457.22 287.88,462.14 C292.07,466.18 289.42,463.29 282.00,455.72 C280.64,454.33 279.39,453.04 278.23,451.85 C280.81,454.34 283.73,457.21 287.00,460.49 L 305.50 479.03 L 306.00 462.58 C306.44,447.99 306.73,445.82 308.57,443.32 C312.87,437.47 315.22,437.00 340.38,437.00 C362.06,437.00 363.45,436.89 366.75,434.85 C367.77,434.22 368.62,433.71 369.34,433.04 C373.00,429.66 373.00,422.31 373.00,374.50 L 373.00 372.48 L 373.00 368.86 C373.00,328.89 373.00,318.85 370.79,314.60 C372.96,318.43 373.00,326.04 373.00,352.95 C373.00,371.68 373.34,387.03 373.75,387.08 C374.16,387.12 375.29,387.30 376.25,387.49 C377.21,387.67 378.25,387.41 378.56,386.91 C378.86,386.41 381.81,386.00 385.09,386.00 C389.57,386.00 391.21,386.39 391.66,387.55 C392.12,388.75 392.70,388.37 394.19,385.93 L 396.12 382.76 L 398.80 385.13 C400.28,386.43 401.82,387.95 402.23,388.50 C402.67,389.10 403.03,388.90 403.12,388.00 C403.20,387.17 403.61,388.08 404.03,390.00 C404.45,391.92 404.73,374.83 404.64,352.00 C404.60,342.03 404.57,334.44 404.51,328.59 C404.63,337.46 404.70,350.27 404.79,369.15 C405.12,433.78 404.94,436.12 399.04,446.42 C394.66,454.06 386.78,461.51 379.18,465.23 C372.59,468.44 372.26,468.49 355.00,468.99 L 337.50 469.50 L 337.32 495.77 C337.15,521.01 337.05,522.18 334.91,525.64 C333.60,527.77 331.02,529.99 328.60,531.10 ZM 1246.94 406.05 C1248.35,406.48 1252.33,406.87 1255.79,406.91 C1271.00,407.12 1277.69,397.16 1276.80,375.62 C1276.45,367.11 1275.96,364.68 1273.72,360.34 C1271.09,355.24 1268.16,352.54 1262.70,350.20 C1259.72,348.92 1248.32,348.59 1243.12,349.62 L 1240.00 350.25 L 1240.00 376.59 C1240.00,402.67 1240.02,402.94 1242.19,404.10 C1243.40,404.75 1245.53,405.62 1246.94,406.05 ZM 1356.25 405.03 C1362.12,407.69 1372.73,407.69 1377.96,405.02 C1385.90,400.97 1388.52,394.35 1388.45,378.50 C1388.41,368.52 1388.05,365.74 1386.31,362.00 C1383.82,356.62 1379.84,352.67 1374.78,350.55 C1371.00,348.97 1360.79,348.49 1355.12,349.62 L 1352.00 350.25 L 1352.00 403.10 ZM 264.19 447.94 C264.43,447.22 265.22,446.43 265.94,446.19 C266.69,445.94 267.06,446.31 266.81,447.06 C266.57,447.78 265.78,448.57 265.06,448.81 C264.31,449.06 263.94,448.69 264.19,447.94 ZM 264.82 440.22 C264.55,440.07 264.27,439.93 263.99,439.80 C259.70,437.76 254.72,437.19 246.05,437.04 C258.88,437.16 259.86,437.63 263.55,439.47 C263.93,439.66 264.35,439.91 264.82,440.22 ZM 402.29 305.09 C402.68,306.06 403.01,306.89 403.28,307.93 C403.01,306.93 402.68,306.08 402.28,305.09 C400.89,301.69 399.24,298.55 397.35,295.69 C399.24,298.55 400.89,301.69 402.29,305.09 ZM 385.58 283.55 C386.98,284.52 388.33,285.58 389.62,286.73 C388.34,285.58 386.99,284.52 385.58,283.55 Z" fill="rgb(202,59,199)"/>
<path d="M 0.00 350.50 L 0.00 0.00 L 747.50 0.00 L 1495.00 0.00 L 1495.00 350.50 L 1495.00 701.00 L 747.50 701.00 L 0.00 701.00 L 0.00 350.50 ZM 328.60 531.10 C331.02,529.99 333.60,527.77 334.91,525.64 C337.05,522.18 337.15,521.01 337.32,495.77 L 337.50 469.50 L 355.00 468.99 C372.26,468.49 372.59,468.44 379.18,465.23 C386.78,461.51 394.66,454.06 399.04,446.42 C404.94,436.12 405.12,433.78 404.79,369.15 C404.50,311.24 404.47,310.43 402.29,305.09 C397.01,292.21 387.97,283.04 376.36,278.78 C371.51,277.00 367.69,276.55 354.25,276.21 L 338.00 275.79 L 337.99 262.65 C337.99,255.42 337.52,246.64 336.95,243.14 C334.78,229.73 324.76,216.22 312.28,209.89 L 305.60 206.50 L 209.05 206.50 L 112.50 206.50 L 105.71 209.72 C97.71,213.51 88.45,221.93 84.69,228.83 C79.09,239.12 79.00,240.30 79.00,304.16 C79.00,343.56 79.37,364.65 80.12,368.20 C82.54,379.69 89.46,389.79 99.47,396.44 C108.45,402.40 111.83,403.24 129.50,403.90 L 145.50 404.50 L 146.00 432.00 C146.56,462.76 146.54,462.69 153.88,466.81 C157.73,468.98 158.28,469.00 204.63,469.00 L 251.49 469.00 L 281.99 499.45 C298.77,516.20 313.85,530.60 315.50,531.45 C319.46,533.48 323.59,533.37 328.60,531.10 ZM 1240.00 448.89 C1240.00,430.15 1240.12,428.83 1241.75,429.46 C1264.99,438.48 1290.39,429.95 1300.65,409.70 C1306.47,398.22 1308.89,376.03 1305.88,361.80 C1301.91,343.03 1288.02,328.80 1269.40,324.42 C1259.95,322.19 1236.55,322.96 1222.05,325.97 C1216.30,327.16 1211.23,328.36 1210.80,328.63 C1210.36,328.90 1210.00,360.59 1210.00,399.06 L 1210.00 469.00 L 1225.00 469.00 L 1240.00 469.00 L 1240.00 448.89 ZM 1352.00 448.89 C1352.00,430.15 1352.12,428.83 1353.75,429.46 C1372.36,436.68 1393.78,432.64 1405.75,419.65 C1414.76,409.88 1419.19,396.42 1419.30,378.50 C1419.46,350.13 1406.17,330.76 1382.28,324.57 C1371.10,321.67 1348.39,322.72 1328.12,327.07 L 1323.00 328.17 L 1323.00 398.58 L 1323.00 469.00 L 1337.50 469.00 L 1352.00 469.00 L 1352.00 448.89 ZM 668.33 432.52 C678.15,430.44 684.68,427.12 691.64,420.67 C702.68,410.46 708.07,396.52 708.08,378.18 C708.09,365.77 706.74,359.44 701.94,349.36 C696.97,338.97 688.25,330.54 678.20,326.44 C668.62,322.52 652.27,321.81 642.21,324.87 C625.07,330.08 612.65,343.87 607.90,363.00 C606.18,369.93 606.19,386.78 607.92,394.00 C611.59,409.34 621.02,421.46 634.37,428.01 C646.12,433.78 656.11,435.11 668.33,432.52 ZM 878.50 430.10 C883.45,428.97 888.52,427.77 889.76,427.41 L 892.02 426.76 L 891.76 376.13 L 891.50 325.50 L 876.75 325.22 L 862.00 324.95 L 862.00 365.85 L 862.00 406.75 L 858.88 407.38 C847.35,409.68 837.45,406.82 834.16,400.24 C830.97,393.88 830.74,391.45 830.11,358.00 L 829.50 325.50 L 817.50 325.21 C810.90,325.05 804.49,325.17 803.25,325.48 L 801.00 326.04 L 801.01 359.27 C801.02,395.50 801.66,402.43 805.90,411.55 C810.88,422.27 817.89,428.05 830.10,431.48 C837.94,433.69 866.22,432.88 878.50,430.10 ZM 541.39 429.42 C541.73,428.55 542.00,415.51 542.00,400.43 L 542.00 373.03 L 568.25 372.77 L 594.50 372.50 L 594.78 359.77 L 595.06 347.03 L 568.28 346.77 L 541.50 346.50 L 541.60 343.75 C541.66,342.24 541.77,335.83 541.85,329.51 L 542.00 318.03 L 572.22 317.76 L 602.45 317.50 L 602.33 315.25 C602.27,314.01 602.17,308.27 602.11,302.50 L 602.00 292.00 L 556.50 292.00 L 511.00 292.00 L 511.00 361.50 L 511.00 431.00 L 525.89 431.00 C538.55,431.00 540.88,430.76 541.39,429.42 ZM 753.00 391.10 L 753.00 351.20 L 756.15 350.10 C760.47,348.59 773.29,348.75 780.27,350.39 C783.44,351.14 786.27,351.37 786.55,350.92 C787.26,349.77 791.28,326.95 790.85,326.52 C790.66,326.33 787.03,325.46 782.79,324.59 C768.25,321.59 749.63,322.86 731.69,328.07 L 724.00 330.31 L 724.00 380.65 L 724.00 431.00 L 738.50 431.00 L 753.00 431.00 L 753.00 391.10 ZM 942.00 390.62 L 942.00 350.25 L 945.12 349.62 C950.73,348.50 959.03,348.97 962.14,350.57 C964.04,351.56 965.98,353.88 967.34,356.82 C969.40,361.29 969.51,363.09 969.81,396.25 L 970.12 431.00 L 985.06 431.00 L 1000.00 431.00 L 999.98 399.75 C999.96,371.80 999.23,358.36 997.47,353.78 C996.05,350.07 1014.01,347.27 1019.94,350.26 C1021.28,350.94 1023.53,353.74 1024.94,356.47 L 1027.50 361.44 L 1027.84 396.22 L 1028.18 431.00 L 1042.59 431.00 L 1057.00 431.00 L 1056.98 394.75 C1056.96,349.39 1055.97,343.61 1046.37,332.99 C1040.70,326.71 1033.32,323.78 1021.76,323.21 C1009.65,322.62 1001.64,324.09 992.37,328.63 L 985.23 332.12 L 980.87 329.08 C973.60,324.02 965.84,322.63 949.00,323.37 C935.46,323.97 926.10,325.28 916.15,327.96 L 912.00 329.08 L 912.00 380.04 L 912.00 431.00 L 927.00 431.00 L 942.00 431.00 L 942.00 390.62 ZM 1099.44 421.24 C1101.05,415.88 1103.25,409.14 1104.32,406.25 L 1106.28 401.00 L 1133.02 401.00 L 1159.76 401.00 L 1164.57 416.00 L 1169.37 431.00 L 1185.68 431.00 C1194.66,431.00 1202.00,430.61 1202.00,430.12 C1202.00,427.61 1187.61,386.34 1178.25,362.00 C1170.84,342.75 1161.66,320.63 1154.30,304.37 L 1148.69 291.95 L 1133.70 292.22 L 1118.71 292.50 L 1112.78 305.50 C1096.38,341.44 1083.33,374.17 1069.71,413.50 C1067.24,420.65 1064.91,427.51 1064.54,428.75 L 1063.87 431.00 L 1080.18 430.99 L 1096.50 430.98 L 1099.44 421.24 ZM 287.00 460.49 C274.27,447.73 266.96,441.18 263.55,439.47 C258.62,437.01 258.53,437.00 228.57,437.00 L 198.52 437.00 L 215.00 420.50 L 231.48 404.00 L 265.63 404.00 C297.05,404.00 300.31,403.84 306.31,401.98 C325.01,396.21 338.82,375.44 337.87,354.53 C337.72,351.22 337.69,339.61 337.80,328.75 L 338.00 309.00 L 351.37 309.00 C363.40,309.00 364.99,309.21 367.39,311.09 C373.12,315.60 373.00,314.24 373.00,372.48 C373.00,431.67 373.07,430.94 366.75,434.85 C363.45,436.89 362.06,437.00 340.38,437.00 C315.22,437.00 312.87,437.47 308.57,443.32 C306.73,445.82 306.44,447.99 306.00,462.58 L 305.50 479.03 L 287.00 460.49 ZM 177.04 399.50 C176.99,381.45 176.12,378.29 170.10,374.27 C166.82,372.08 165.93,372.00 144.30,372.00 C119.75,372.00 118.49,371.75 113.62,365.96 L 111.00 362.85 L 111.00 305.17 C111.01,249.74 111.08,247.38 112.96,244.30 C117.01,237.66 111.78,238.00 208.70,238.00 C292.84,238.01 296.63,238.09 299.58,239.89 C306.10,243.86 306.00,242.81 306.00,304.93 C306.00,366.86 306.07,366.16 299.81,369.97 C296.66,371.90 294.84,371.99 261.00,372.00 C239.17,372.01 223.96,372.42 221.50,373.07 C218.17,373.96 214.13,377.58 197.29,394.82 L 177.08 415.50 L 177.04 399.50 ZM 1246.94 406.05 C1245.53,405.62 1243.40,404.75 1242.19,404.10 C1240.02,402.94 1240.00,402.67 1240.00,376.59 L 1240.00 350.25 L 1243.12 349.62 C1248.32,348.59 1259.72,348.92 1262.70,350.20 C1268.16,352.54 1271.09,355.24 1273.72,360.34 C1275.96,364.68 1276.45,367.11 1276.80,375.62 C1277.69,397.16 1271.00,407.12 1255.79,406.91 C1252.33,406.87 1248.35,406.48 1246.94,406.05 ZM 1356.25 405.03 L 1352.00 403.10 L 1352.00 376.67 L 1352.00 350.25 L 1355.12 349.62 C1360.79,348.49 1371.00,348.97 1374.78,350.55 C1379.84,352.67 1383.82,356.62 1386.31,362.00 C1388.05,365.74 1388.41,368.52 1388.45,378.50 C1388.52,394.35 1385.90,400.97 1377.96,405.02 C1372.73,407.69 1362.12,407.69 1356.25,405.03 ZM 649.42 406.17 C644.37,403.80 641.70,400.48 638.95,393.17 C637.13,388.32 636.87,385.83 637.16,376.00 C637.48,365.30 637.72,364.12 640.60,359.00 C644.78,351.60 649.27,349.04 658.10,349.02 C666.64,349.00 670.34,351.35 674.48,359.46 C677.38,365.14 677.50,365.87 677.50,378.43 C677.50,390.45 677.30,391.90 674.97,396.41 C671.22,403.70 666.54,407.07 659.36,407.63 C654.95,407.97 652.49,407.61 649.42,406.17 ZM 1114.00 375.20 C1114.00,371.87 1131.78,325.00 1133.04,325.00 C1133.87,325.00 1142.88,347.64 1148.86,364.75 L 1152.79 376.00 L 1133.39 376.00 C1122.73,376.00 1114.00,375.64 1114.00,375.20 Z" fill="rgb(253,253,253)"/>
</g>
</svg>